<svg width="120" height="110" viewBox="0 0 120 110" fill="none" xmlns="http://www.w3.org/2000/svg">
<path d="M0.944281 109L7.73628 91.96H10.8563L17.6723 109H14.6483L13.0403 104.776H5.45628L3.84828 109H0.944281ZM6.41628 102.28H12.0803L9.24828 94.912L6.41628 102.28ZM24.5537 109.36C23.7217 109.36 22.9457 109.192 22.2257 108.856C21.5217 108.52 20.9057 108.056 20.3777 107.464C19.8497 106.872 19.4337 106.176 19.1297 105.376C18.8417 104.576 18.6977 103.712 18.6977 102.784C18.6977 101.84 18.8497 100.96 19.1537 100.144C19.4577 99.328 19.8817 98.616 20.4257 98.008C20.9697 97.4 21.6017 96.928 22.3217 96.592C23.0577 96.256 23.8497 96.088 24.6977 96.088C25.5297 96.088 26.2897 96.264 26.9777 96.616C27.6657 96.968 28.2337 97.464 28.6817 98.104V91.144H31.4417V109H28.9217L28.8017 106.984C28.3537 107.72 27.7617 108.304 27.0257 108.736C26.2897 109.152 25.4657 109.36 24.5537 109.36ZM25.1297 106.864C25.8177 106.864 26.4337 106.688 26.9777 106.336C27.5217 105.968 27.9457 105.472 28.2497 104.848C28.5697 104.224 28.7297 103.52 28.7297 102.736C28.7297 101.936 28.5697 101.224 28.2497 100.6C27.9457 99.976 27.5217 99.488 26.9777 99.136C26.4337 98.768 25.8177 98.584 25.1297 98.584C24.4417 98.584 23.8257 98.768 23.2817 99.136C22.7377 99.488 22.3057 99.976 21.9857 100.6C21.6817 101.224 21.5297 101.936 21.5297 102.736C21.5297 103.52 21.6817 104.224 21.9857 104.848C22.3057 105.472 22.7377 105.968 23.2817 106.336C23.8257 106.688 24.4417 106.864 25.1297 106.864ZM39.7178 109.36C38.8858 109.36 38.1098 109.192 37.3898 108.856C36.6858 108.52 36.0698 108.056 35.5418 107.464C35.0138 106.872 34.5978 106.176 34.2938 105.376C34.0058 104.576 33.8618 103.712 33.8618 102.784C33.8618 101.84 34.0138 100.96 34.3178 100.144C34.6218 99.328 35.0458 98.616 35.5898 98.008C36.1338 97.4 36.7658 96.928 37.4858 96.592C38.2218 96.256 39.0138 96.088 39.8618 96.088C40.6938 96.088 41.4538 96.264 42.1418 96.616C42.8298 96.968 43.3978 97.464 43.8458 98.104V91.144H46.6058V109H44.0858L43.9658 106.984C43.5178 107.72 42.9258 108.304 42.1898 108.736C41.4538 109.152 40.6298 109.36 39.7178 109.36ZM40.2938 106.864C40.9818 106.864 41.5978 106.688 42.1418 106.336C42.6858 105.968 43.1098 105.472 43.4138 104.848C43.7338 104.224 43.8938 103.52 43.8938 102.736C43.8938 101.936 43.7338 101.224 43.4138 100.6C43.1098 99.976 42.6858 99.488 42.1418 99.136C41.5978 98.768 40.9818 98.584 40.2938 98.584C39.6058 98.584 38.9898 98.768 38.4458 99.136C37.9018 99.488 37.4698 99.976 37.1498 100.6C36.8458 101.224 36.6938 101.936 36.6938 102.736C36.6938 103.52 36.8458 104.224 37.1498 104.848C37.4698 105.472 37.9018 105.968 38.4458 106.336C38.9898 106.688 39.6058 106.864 40.2938 106.864ZM54.8792 109V91.96H60.0392C61.3992 91.96 62.5592 92.184 63.5192 92.632C64.4952 93.08 65.2392 93.72 65.7512 94.552C66.2792 95.384 66.5432 96.392 66.5432 97.576C66.5432 98.696 66.2712 99.68 65.7272 100.528C65.1832 101.36 64.4152 102.008 63.4232 102.472C62.4312 102.92 61.2632 103.144 59.9192 103.144C59.5992 103.144 59.2552 103.128 58.8872 103.096C58.5352 103.064 58.1592 103.024 57.7592 102.976V109H54.8792ZM57.7592 94.504V100.432C58.1112 100.48 58.4632 100.52 58.8152 100.552C59.1672 100.584 59.4952 100.6 59.7992 100.6C61.0152 100.6 61.9432 100.336 62.5832 99.808C63.2392 99.28 63.5672 98.528 63.5672 97.552C63.5672 96.592 63.2552 95.848 62.6312 95.32C62.0072 94.776 61.1272 94.504 59.9912 94.504H57.7592ZM68.7732 109V91.144H71.5332V97.96C71.9172 97.384 72.4292 96.928 73.0692 96.592C73.7092 96.256 74.4292 96.088 75.2292 96.088C76.1732 96.088 76.9892 96.312 77.6772 96.76C78.3812 97.208 78.9252 97.84 79.3092 98.656C79.6932 99.472 79.8852 100.432 79.8852 101.536V109H77.1252V101.848C77.1252 100.824 76.8932 100.024 76.4292 99.448C75.9812 98.872 75.3492 98.584 74.5332 98.584C73.9572 98.584 73.4372 98.72 72.9732 98.992C72.5252 99.264 72.1732 99.632 71.9172 100.096C71.6612 100.56 71.5332 101.096 71.5332 101.704V109H68.7732ZM88.6911 109.36C87.7791 109.36 86.9311 109.2 86.1471 108.88C85.3791 108.544 84.7071 108.08 84.1311 107.488C83.5551 106.88 83.1071 106.176 82.7871 105.376C82.4671 104.56 82.3071 103.672 82.3071 102.712C82.3071 101.768 82.4671 100.896 82.7871 100.096C83.1071 99.28 83.5551 98.576 84.1311 97.984C84.7231 97.376 85.4111 96.912 86.1951 96.592C86.9951 96.256 87.8591 96.088 88.7871 96.088C89.6991 96.088 90.5391 96.256 91.3071 96.592C92.0911 96.912 92.7711 97.376 93.3471 97.984C93.9231 98.576 94.3711 99.272 94.6911 100.072C95.0111 100.872 95.1711 101.752 95.1711 102.712C95.1711 103.672 95.0111 104.56 94.6911 105.376C94.3711 106.176 93.9151 106.88 93.3231 107.488C92.7471 108.08 92.0591 108.544 91.2591 108.88C90.4751 109.2 89.6191 109.36 88.6911 109.36ZM88.7391 106.864C89.4271 106.864 90.0431 106.688 90.5871 106.336C91.1311 105.968 91.5551 105.472 91.8591 104.848C92.1791 104.224 92.3391 103.512 92.3391 102.712C92.3391 101.912 92.1791 101.208 91.8591 100.6C91.5551 99.976 91.1311 99.488 90.5871 99.136C90.0431 98.768 89.4271 98.584 88.7391 98.584C88.0511 98.584 87.4351 98.768 86.8911 99.136C86.3471 99.488 85.9151 99.976 85.5951 100.6C85.2911 101.208 85.1391 101.912 85.1391 102.712C85.1391 103.512 85.2911 104.224 85.5951 104.848C85.9151 105.472 86.3471 105.968 86.8911 106.336C87.4351 106.688 88.0511 106.864 88.7391 106.864ZM102.457 109.36C101.193 109.36 100.201 109 99.4812 108.28C98.7612 107.544 98.4012 106.496 98.4012 105.136V98.68H96.1932V96.448H98.4012V92.2H101.161V96.448H104.809V98.68H101.161V104.848C101.161 105.52 101.297 106.04 101.569 106.408C101.857 106.76 102.273 106.936 102.817 106.936C103.105 106.936 103.417 106.896 103.753 106.816C104.089 106.72 104.401 106.592 104.689 106.432L105.313 108.52C104.945 108.776 104.513 108.976 104.017 109.12C103.537 109.28 103.017 109.36 102.457 109.36ZM113.09 109.36C112.178 109.36 111.33 109.2 110.546 108.88C109.778 108.544 109.106 108.08 108.53 107.488C107.954 106.88 107.506 106.176 107.186 105.376C106.866 104.56 106.706 103.672 106.706 102.712C106.706 101.768 106.866 100.896 107.186 100.096C107.506 99.28 107.954 98.576 108.53 97.984C109.122 97.376 109.81 96.912 110.594 96.592C111.394 96.256 112.258 96.088 113.186 96.088C114.098 96.088 114.938 96.256 115.706 96.592C116.49 96.912 117.17 97.376 117.746 97.984C118.322 98.576 118.77 99.272 119.09 100.072C119.41 100.872 119.57 101.752 119.57 102.712C119.57 103.672 119.41 104.56 119.09 105.376C118.77 106.176 118.314 106.88 117.722 107.488C117.146 108.08 116.458 108.544 115.658 108.88C114.874 109.2 114.018 109.36 113.09 109.36ZM113.138 106.864C113.826 106.864 114.442 106.688 114.986 106.336C115.53 105.968 115.954 105.472 116.258 104.848C116.578 104.224 116.738 103.512 116.738 102.712C116.738 101.912 116.578 101.208 116.258 100.6C115.954 99.976 115.53 99.488 114.986 99.136C114.442 98.768 113.826 98.584 113.138 98.584C112.45 98.584 111.834 98.768 111.29 99.136C110.746 99.488 110.314 99.976 109.994 100.6C109.69 101.208 109.538 101.912 109.538 102.712C109.538 103.512 109.69 104.224 109.994 104.848C110.314 105.472 110.746 105.968 111.29 106.336C111.834 106.688 112.45 106.864 113.138 106.864Z" fill="#666666"/>
<path d="M80.6667 1H43.3333C40.3878 1 38 3.38781 38 6.33333V43.6667C38 46.6122 40.3878 49 43.3333 49H80.6667C83.6122 49 86 46.6122 86 43.6667V6.33333C86 3.38781 83.6122 1 80.6667 1Z" stroke="#666666" stroke-width="2" stroke-linecap="round" stroke-linejoin="round"/>
<path d="M52.6667 19.6666C54.8759 19.6666 56.6667 17.8758 56.6667 15.6666C56.6667 13.4575 54.8759 11.6666 52.6667 11.6666C50.4576 11.6666 48.6667 13.4575 48.6667 15.6666C48.6667 17.8758 50.4576 19.6666 52.6667 19.6666Z" stroke="#666666" stroke-width="2" stroke-linecap="round" stroke-linejoin="round"/>
<path d="M85.9999 33L72.6666 19.6666L43.3333 49" stroke="#666666" stroke-width="2" stroke-linecap="round" stroke-linejoin="round"/>
</svg>
