<?xml version="1.0" encoding="iso-8859-1"?>
<!-- Generator: Adobe Illustrator 19.0.0, SVG Export Plug-In . SVG Version: 6.00 Build 0)  -->
<svg version="1.1" id="Layer_1" xmlns="http://www.w3.org/2000/svg" xmlns:xlink="http://www.w3.org/1999/xlink" x="0px" y="0px"
	 viewBox="0 0 330 330" style="enable-background:new 0 0 330 330;" xml:space="preserve">
<g id="XMLID_109_">
	<g id="XMLID_221_">
		<path d="M150,90h30h60h8.08H255c8.284,0,15-6.716,15-15s-6.716-15-15-15h-30h-15V15c0-8.284-6.716-15-15-15H75
			c-8.284,0-15,6.716-15,15v45H45H15C6.716,60,0,66.716,0,75s6.716,15,15,15h15h60h30H150z M90,60V30h90v30h-15h-60H90z"/>
	</g>
	<g id="XMLID_226_">
		<path d="M30,275c0,8.284,6.716,15,15,15h35V120H30V275z"/>
	</g>
	<g id="XMLID_231_">
		<path d="M240,121.076V120h-15h-45v10.145c-11.242,5.354-21.385,12.651-30,21.451V120h-40v105v65h32.596
			c19.246,24.348,49.031,40,82.404,40c57.897,0,105-47.103,105-105C330,172.195,290.816,128.377,240,121.076z M225,300
			c-13.592,0-26.339-3.652-37.344-10c-2.656-1.532-5.218-3.206-7.656-5.041c-18.204-13.696-30-35.475-30-59.959
			s11.796-46.263,30-59.959C192.544,155.602,208.129,150,225,150c5.136,0,10.152,0.52,15,1.509c34.191,6.969,60,37.271,60,73.491
			C300,266.355,266.355,300,225,300z"/>
	</g>
	<g id="XMLID_237_">
		<path d="M256.819,193.181c-4.55-4.549-11.289-5.549-16.819-3.031c-1.59,0.725-3.086,1.723-4.394,3.031L225,203.787l-10.606-10.606
			c-5.857-5.857-15.355-5.857-21.213,0c-5.858,5.857-5.858,15.355,0,21.213L203.787,225l-10.606,10.606
			c-5.858,5.857-5.858,15.355,0,21.213c2.929,2.929,6.768,4.394,10.606,4.394c3.839,0,7.678-1.465,10.606-4.394L225,246.213
			l10.606,10.606c1.308,1.309,2.804,2.307,4.394,3.031c1.971,0.897,4.088,1.362,6.213,1.362c3.839,0,7.678-1.465,10.606-4.394
			c5.858-5.857,5.858-15.355,0-21.213L246.213,225l10.606-10.606C262.678,208.536,262.678,199.038,256.819,193.181z"/>
	</g>
</g>
<g>
</g>
<g>
</g>
<g>
</g>
<g>
</g>
<g>
</g>
<g>
</g>
<g>
</g>
<g>
</g>
<g>
</g>
<g>
</g>
<g>
</g>
<g>
</g>
<g>
</g>
<g>
</g>
<g>
</g>
</svg>
