<svg width="148" height="223" viewBox="0 0 148 223" fill="none" xmlns="http://www.w3.org/2000/svg">
<path d="M57.3169 41.9465C60.2616 41.9465 62.6489 39.5592 62.6489 36.6146C62.6489 33.1367 63.368 32.1603 64.8012 30.2141C68.8059 24.7759 71.2511 20.2309 71.2511 13.1696C71.2511 9.19058 69.9835 5.75752 68.8791 3.21169C67.7071 0.510172 64.5663 -0.73075 61.8658 0.442279C59.1643 1.61424 57.9244 4.75405 59.096 7.45557C59.7903 9.05586 60.5872 11.1517 60.5872 13.1693C60.5872 17.6264 58.9489 20.1755 56.2143 23.8904C54.33 26.4494 51.9854 29.6336 51.9854 36.6142C51.985 39.5592 54.3723 41.9465 57.3169 41.9465Z" fill="white"/>
<path d="M82.0807 41.9464C85.0254 41.9464 87.4127 39.5592 87.4127 36.6145C87.4127 33.137 88.1318 32.1602 89.565 30.214C93.5761 24.7669 96.0149 20.2166 96.0149 13.1696C96.0149 9.19087 94.7473 5.75816 93.6433 3.21198C92.4717 0.510103 89.3308 -0.729752 86.6303 0.441854C83.9285 1.61382 82.6886 4.75362 83.8602 7.45514C84.5544 9.05579 85.3514 11.1516 85.3514 13.1692C85.3514 17.6228 83.7169 20.1693 80.9785 23.8907C79.0941 26.4493 76.7495 29.6336 76.7495 36.6141C76.7488 39.5592 79.1361 41.9464 82.0807 41.9464Z" fill="white"/>
<path d="M106.088 148.606L100.735 129.742C97.4623 131.191 94.0904 132.369 90.6509 133.271L95.8307 151.525C91.4514 154.54 88.5732 159.585 88.5732 165.292C88.5732 174.504 96.0678 181.999 105.28 181.999C114.492 181.999 121.987 174.504 121.987 165.292C121.987 156.351 114.926 149.029 106.088 148.606Z" fill="white"/>
<path d="M73.9997 124.769C94.6781 124.769 112.913 113.255 123.505 95.8496H24.4937C35.0865 113.255 53.3214 124.769 73.9997 124.769Z" fill="white"/>
<path d="M142.249 51.5439H5.75089C2.80623 51.5439 0.418945 53.9312 0.418945 56.8759C0.418945 59.8205 2.80623 62.2078 5.75089 62.2078H14.8038C14.9684 70.3263 16.5396 78.0768 19.2631 85.1857H128.737C131.46 78.0768 133.031 70.3263 133.196 62.2078H142.249C145.193 62.2078 147.581 59.8205 147.581 56.8759C147.581 53.9312 145.193 51.5439 142.249 51.5439Z" fill="white"/>
<path d="M37.5326 175.429C36.7342 178.774 39.2704 182 42.7234 182C45.1345 182 47.321 180.353 47.9053 177.904L58.4882 133.566C55.026 132.724 51.6285 131.599 48.3269 130.206L37.5326 175.429Z" fill="white"/>
<path d="M68.668 135.206V176.667C68.668 179.612 71.0553 181.999 73.9999 181.999C76.9446 181.999 79.3319 179.612 79.3319 176.667V135.206C75.6407 135.508 72.3666 135.509 68.668 135.206Z" fill="white"/>
<path d="M18.17 219V206.22H20.69L24.722 213.6L28.772 206.22H31.202V219H28.61V210.918L25.64 216.336H23.732L20.762 210.918V219H18.17ZM36.3053 219.27C35.8133 219.27 35.3633 219.198 34.9553 219.054C34.5473 218.91 34.1873 218.706 33.8753 218.442C33.5753 218.166 33.3413 217.848 33.1733 217.488C33.0053 217.128 32.9213 216.732 32.9213 216.3C32.9213 215.7 33.0833 215.172 33.4073 214.716C33.7313 214.26 34.1873 213.906 34.7753 213.654C35.3633 213.39 36.0473 213.258 36.8273 213.258C37.2233 213.258 37.5953 213.294 37.9433 213.366C38.3033 213.438 38.6513 213.54 38.9873 213.672V213.114C38.9873 212.574 38.8313 212.136 38.5193 211.8C38.2193 211.464 37.8053 211.296 37.2773 211.296C36.8813 211.296 36.5213 211.398 36.1973 211.602C35.8733 211.794 35.6453 212.07 35.5133 212.43L33.2633 211.98C33.3953 211.428 33.6533 210.948 34.0373 210.54C34.4333 210.12 34.9133 209.796 35.4773 209.568C36.0413 209.34 36.6533 209.226 37.3133 209.226C37.9253 209.226 38.4833 209.322 38.9873 209.514C39.4913 209.706 39.9233 209.982 40.2833 210.342C40.6553 210.702 40.9373 211.128 41.1293 211.62C41.3333 212.1 41.4353 212.64 41.4353 213.24V219H39.1853L39.1133 217.884C38.8613 218.292 38.4953 218.628 38.0153 218.892C37.5353 219.144 36.9653 219.27 36.3053 219.27ZM35.4053 216.174C35.4053 216.51 35.5433 216.786 35.8193 217.002C36.0953 217.218 36.4613 217.326 36.9173 217.326C37.3133 217.326 37.6673 217.242 37.9793 217.074C38.2913 216.906 38.5373 216.678 38.7173 216.39C38.8973 216.09 38.9873 215.76 38.9873 215.4V215.31C38.7233 215.202 38.4413 215.118 38.1413 215.058C37.8413 214.986 37.5413 214.95 37.2413 214.95C36.6773 214.95 36.2273 215.064 35.8913 215.292C35.5673 215.508 35.4053 215.802 35.4053 216.174ZM43.4435 219V209.496H45.7655L45.8375 210.702C46.1135 210.246 46.4855 209.886 46.9535 209.622C47.4215 209.358 47.9495 209.226 48.5375 209.226C49.1735 209.226 49.7375 209.382 50.2295 209.694C50.7335 210.006 51.1235 210.438 51.3995 210.99C51.6875 210.462 52.1015 210.036 52.6415 209.712C53.1935 209.388 53.8235 209.226 54.5315 209.226C55.2395 209.226 55.8515 209.394 56.3675 209.73C56.8835 210.054 57.2795 210.522 57.5555 211.134C57.8435 211.746 57.9875 212.466 57.9875 213.294V219H55.4675V213.618C55.4675 212.958 55.3235 212.442 55.0355 212.07C54.7475 211.686 54.3455 211.494 53.8295 211.494C53.4695 211.494 53.1455 211.584 52.8575 211.764C52.5815 211.932 52.3655 212.172 52.2095 212.484C52.0535 212.796 51.9755 213.15 51.9755 213.546V219H49.4555V213.618C49.4555 212.958 49.3115 212.442 49.0235 212.07C48.7355 211.686 48.3335 211.494 47.8175 211.494C47.4575 211.494 47.1335 211.584 46.8455 211.764C46.5695 211.932 46.3535 212.172 46.1975 212.484C46.0415 212.796 45.9635 213.15 45.9635 213.546V219H43.4435ZM62.9361 219.27C62.4441 219.27 61.9941 219.198 61.5861 219.054C61.1781 218.91 60.8181 218.706 60.5061 218.442C60.2061 218.166 59.9721 217.848 59.8041 217.488C59.6361 217.128 59.5521 216.732 59.5521 216.3C59.5521 215.7 59.7141 215.172 60.0381 214.716C60.3621 214.26 60.8181 213.906 61.4061 213.654C61.9941 213.39 62.6781 213.258 63.4581 213.258C63.8541 213.258 64.2261 213.294 64.5741 213.366C64.9341 213.438 65.2821 213.54 65.6181 213.672V213.114C65.6181 212.574 65.4621 212.136 65.1501 211.8C64.8501 211.464 64.4361 211.296 63.9081 211.296C63.5121 211.296 63.1521 211.398 62.8281 211.602C62.5041 211.794 62.2761 212.07 62.1441 212.43L59.8941 211.98C60.0261 211.428 60.2841 210.948 60.6681 210.54C61.0641 210.12 61.5441 209.796 62.1081 209.568C62.6721 209.34 63.2841 209.226 63.9441 209.226C64.5561 209.226 65.1141 209.322 65.6181 209.514C66.1221 209.706 66.5541 209.982 66.9141 210.342C67.2861 210.702 67.5681 211.128 67.7601 211.62C67.9641 212.1 68.0661 212.64 68.0661 213.24V219H65.8161L65.7441 217.884C65.4921 218.292 65.1261 218.628 64.6461 218.892C64.1661 219.144 63.5961 219.27 62.9361 219.27ZM62.0361 216.174C62.0361 216.51 62.1741 216.786 62.4501 217.002C62.7261 217.218 63.0921 217.326 63.5481 217.326C63.9441 217.326 64.2981 217.242 64.6101 217.074C64.9221 216.906 65.1681 216.678 65.3481 216.39C65.5281 216.09 65.6181 215.76 65.6181 215.4V215.31C65.3541 215.202 65.0721 215.118 64.7721 215.058C64.4721 214.986 64.1721 214.95 63.8721 214.95C63.3081 214.95 62.8581 215.064 62.5221 215.292C62.1981 215.508 62.0361 215.802 62.0361 216.174ZM73.9981 219V206.22H78.1021C79.1461 206.22 80.0461 206.388 80.8021 206.724C81.5701 207.048 82.1581 207.522 82.5661 208.146C82.9741 208.758 83.1781 209.484 83.1781 210.324C83.1781 210.816 83.0881 211.29 82.9081 211.746C82.7281 212.19 82.4761 212.598 82.1521 212.97C81.8281 213.33 81.4381 213.63 80.9821 213.87L83.8801 219H80.9281L78.6421 214.572C78.4141 214.584 78.1681 214.59 77.9041 214.59C77.5201 214.59 77.1001 214.554 76.6441 214.482V219H73.9981ZM76.6441 208.488V212.25C76.8721 212.286 77.1001 212.316 77.3281 212.34C77.5561 212.352 77.7961 212.358 78.0481 212.358C78.8161 212.358 79.4101 212.19 79.8301 211.854C80.2501 211.506 80.4601 211.026 80.4601 210.414C80.4601 209.802 80.2501 209.328 79.8301 208.992C79.4101 208.656 78.8161 208.488 78.0481 208.488H76.6441ZM89.4631 219.27C88.7551 219.27 88.1011 219.15 87.5011 218.91C86.9131 218.658 86.4031 218.31 85.9711 217.866C85.5391 217.41 85.2031 216.876 84.9631 216.264C84.7231 215.64 84.6031 214.962 84.6031 214.23C84.6031 213.522 84.7231 212.862 84.9631 212.25C85.2031 211.638 85.5331 211.11 85.9531 210.666C86.3851 210.21 86.8891 209.856 87.4651 209.604C88.0411 209.352 88.6651 209.226 89.3371 209.226C90.0331 209.226 90.6631 209.346 91.2271 209.586C91.8031 209.826 92.2951 210.168 92.7031 210.612C93.1111 211.056 93.4231 211.584 93.6391 212.196C93.8671 212.808 93.9811 213.492 93.9811 214.248V214.878H87.1591C87.2671 215.586 87.5251 216.144 87.9331 216.552C88.3411 216.948 88.8571 217.146 89.4811 217.146C89.9131 217.146 90.3031 217.044 90.6511 216.84C91.0111 216.636 91.3051 216.342 91.5331 215.958L93.7831 216.678C93.5671 217.218 93.2431 217.68 92.8111 218.064C92.3791 218.448 91.8751 218.748 91.2991 218.964C90.7231 219.168 90.1111 219.27 89.4631 219.27ZM89.3371 211.17C88.7851 211.17 88.3171 211.35 87.9331 211.71C87.5611 212.07 87.3151 212.562 87.1951 213.186H91.3891C91.2931 212.562 91.0591 212.07 90.6871 211.71C90.3271 211.35 89.8771 211.17 89.3371 211.17ZM100.043 219.27C99.359 219.27 98.723 219.15 98.135 218.91C97.559 218.658 97.055 218.31 96.623 217.866C96.203 217.422 95.873 216.9 95.633 216.3C95.393 215.688 95.273 215.028 95.273 214.32C95.273 213.6 95.393 212.934 95.633 212.322C95.885 211.698 96.227 211.158 96.659 210.702C97.103 210.234 97.619 209.874 98.207 209.622C98.795 209.358 99.431 209.226 100.115 209.226C100.799 209.226 101.429 209.358 102.005 209.622C102.581 209.874 103.067 210.234 103.463 210.702C103.871 211.17 104.153 211.716 104.309 212.34L101.915 212.808C101.735 212.4 101.483 212.082 101.159 211.854C100.835 211.614 100.469 211.494 100.061 211.494C99.629 211.494 99.245 211.614 98.909 211.854C98.585 212.094 98.327 212.43 98.135 212.862C97.943 213.282 97.847 213.756 97.847 214.284C97.847 214.812 97.937 215.28 98.117 215.688C98.309 216.096 98.573 216.42 98.909 216.66C99.245 216.888 99.629 217.002 100.061 217.002C100.493 217.002 100.883 216.888 101.231 216.66C101.579 216.432 101.837 216.108 102.005 215.688L104.399 216.156C104.243 216.792 103.949 217.344 103.517 217.812C103.097 218.28 102.587 218.64 101.987 218.892C101.387 219.144 100.739 219.27 100.043 219.27ZM108.616 206.922C108.616 207.198 108.55 207.444 108.418 207.66C108.298 207.876 108.124 208.05 107.896 208.182C107.68 208.302 107.44 208.362 107.176 208.362C106.912 208.362 106.666 208.302 106.438 208.182C106.222 208.05 106.048 207.876 105.916 207.66C105.796 207.444 105.736 207.198 105.736 206.922C105.736 206.646 105.796 206.4 105.916 206.184C106.048 205.968 106.222 205.8 106.438 205.68C106.666 205.548 106.912 205.482 107.176 205.482C107.44 205.482 107.68 205.548 107.896 205.68C108.124 205.8 108.298 205.968 108.418 206.184C108.55 206.4 108.616 206.646 108.616 206.922ZM105.916 219V209.496H108.436V219H105.916ZM110.451 222.492V209.496H112.773L112.845 210.882C113.169 210.366 113.601 209.964 114.141 209.676C114.681 209.376 115.275 209.226 115.923 209.226C116.547 209.226 117.123 209.352 117.651 209.604C118.179 209.856 118.641 210.21 119.037 210.666C119.433 211.11 119.739 211.632 119.955 212.232C120.183 212.832 120.297 213.486 120.297 214.194C120.297 214.914 120.183 215.58 119.955 216.192C119.727 216.804 119.409 217.344 119.001 217.812C118.593 218.268 118.113 218.628 117.561 218.892C117.009 219.144 116.415 219.27 115.779 219.27C115.191 219.27 114.657 219.156 114.177 218.928C113.697 218.688 113.295 218.358 112.971 217.938V222.492H110.451ZM115.329 217.002C115.785 217.002 116.193 216.882 116.553 216.642C116.913 216.402 117.195 216.078 117.399 215.67C117.615 215.25 117.723 214.776 117.723 214.248C117.723 213.72 117.615 213.252 117.399 212.844C117.195 212.424 116.913 212.094 116.553 211.854C116.193 211.614 115.785 211.494 115.329 211.494C114.873 211.494 114.465 211.614 114.105 211.854C113.745 212.094 113.457 212.424 113.241 212.844C113.037 213.252 112.935 213.72 112.935 214.248C112.935 214.776 113.037 215.25 113.241 215.67C113.457 216.078 113.745 216.402 114.105 216.642C114.465 216.882 114.873 217.002 115.329 217.002ZM126.535 219.27C125.827 219.27 125.173 219.15 124.573 218.91C123.985 218.658 123.475 218.31 123.043 217.866C122.611 217.41 122.275 216.876 122.035 216.264C121.795 215.64 121.675 214.962 121.675 214.23C121.675 213.522 121.795 212.862 122.035 212.25C122.275 211.638 122.605 211.11 123.025 210.666C123.457 210.21 123.961 209.856 124.537 209.604C125.113 209.352 125.737 209.226 126.409 209.226C127.105 209.226 127.735 209.346 128.299 209.586C128.875 209.826 129.367 210.168 129.775 210.612C130.183 211.056 130.495 211.584 130.711 212.196C130.939 212.808 131.053 213.492 131.053 214.248V214.878H124.231C124.339 215.586 124.597 216.144 125.005 216.552C125.413 216.948 125.929 217.146 126.553 217.146C126.985 217.146 127.375 217.044 127.723 216.84C128.083 216.636 128.377 216.342 128.605 215.958L130.855 216.678C130.639 217.218 130.315 217.68 129.883 218.064C129.451 218.448 128.947 218.748 128.371 218.964C127.795 219.168 127.183 219.27 126.535 219.27ZM126.409 211.17C125.857 211.17 125.389 211.35 125.005 211.71C124.633 212.07 124.387 212.562 124.267 213.186H128.461C128.365 212.562 128.131 212.07 127.759 211.71C127.399 211.35 126.949 211.17 126.409 211.17ZM134.039 219.072C133.739 219.072 133.469 219 133.229 218.856C133.001 218.712 132.815 218.52 132.671 218.28C132.527 218.04 132.455 217.776 132.455 217.488C132.455 217.2 132.527 216.936 132.671 216.696C132.815 216.456 133.001 216.264 133.229 216.12C133.469 215.976 133.739 215.904 134.039 215.904C134.339 215.904 134.603 215.976 134.831 216.12C135.071 216.264 135.263 216.456 135.407 216.696C135.551 216.936 135.623 217.2 135.623 217.488C135.623 217.776 135.551 218.04 135.407 218.28C135.263 218.52 135.071 218.712 134.831 218.856C134.603 219 134.339 219.072 134.039 219.072Z" fill="white"/>
</svg>
